<svg xmlns="http://www.w3.org/2000/svg" version="1.1" viewBox="12.5 23.38 75 53.23" fill="#dcdcdc"> <path d="m36.695 62.094h-16.938c-0.66797 0-1.2109-0.54297-1.2109-1.2109v-3.6289c0-3.6094 1.9883-6.8945 5.1797-8.5742 0.58984-0.3125 1.3242-0.082032 1.6367 0.50781s0.082031 1.3242-0.50781 1.6367c-2.3984 1.2578-3.8867 3.7266-3.8867 6.4297v2.418h14.516v-2.418c0-1.9375-0.75781-3.7578-2.125-5.1328-0.52344-0.52344-1.1133-0.95703-1.7617-1.2969-0.58984-0.3125-0.82031-1.0391-0.50781-1.6328 0.3125-0.58984 1.0391-0.82031 1.6328-0.50781 0.86328 0.45312 1.6562 1.0352 2.3477 1.7266 1.8281 1.8281 2.8359 4.2578 2.8359 6.8398v3.6289c0 0.67969-0.54297 1.2148-1.2109 1.2148z"></path> <path d="m28.227 52.418c-4.0039 0-7.2578-3.2578-7.2578-7.2578 0-4.0039 3.2578-7.2578 7.2578-7.2578s7.2578 3.2578 7.2578 7.2578c0 4.0039-3.2578 7.2578-7.2578 7.2578zm0-12.098c-2.6641 0-4.8398 2.1719-4.8398 4.8398 0 2.6641 2.1719 4.8398 4.8398 4.8398 2.668 0 4.8398-2.1719 4.8398-4.8398 0-2.6641-2.1719-4.8398-4.8398-4.8398z"></path> <path d="m86.289 69.355h-72.578c-0.66797 0-1.2109-0.54297-1.2109-1.2109v-43.551c0-0.66797 0.54297-1.2109 1.2109-1.2109h72.582c0.66797 0 1.2109 0.54297 1.2109 1.2109v43.551c-0.003906 0.66797-0.54688 1.2109-1.2148 1.2109zm-71.371-2.4219h70.16v-41.129h-70.16z"></path> <path d="m54.84 76.609h-9.6797c-0.66797 0-1.2109-0.54297-1.2109-1.2109v-7.2578c0-0.66797 0.54297-1.2109 1.2109-1.2109h9.6797c0.66797 0 1.2109 0.54297 1.2109 1.2109v7.2578c0 0.67187-0.54297 1.2109-1.2109 1.2109zm-8.4688-2.4141h7.2578v-4.8398h-7.2578z"></path> <path d="m58.469 76.609h-16.938c-0.66797 0-1.2109-0.54297-1.2109-1.2109 0-0.66797 0.54297-1.2109 1.2109-1.2109h16.934c0.66797 0 1.2109 0.54297 1.2109 1.2109 0.003907 0.67187-0.53906 1.2109-1.207 1.2109z"></path> <path d="m86.289 62.094h-72.578c-0.66797 0-1.2109-0.54297-1.2109-1.2109 0-0.66797 0.54297-1.2109 1.2109-1.2109h72.582c0.66797 0 1.2109 0.54297 1.2109 1.2109-0.003906 0.67578-0.54688 1.2109-1.2148 1.2109z"></path> <path d="m81.449 46.371h-16.934c-0.66797 0-1.2109-0.54297-1.2109-1.2109v-15.727c0-0.66797 0.54297-1.2109 1.2109-1.2109h16.934c0.66797 0 1.2109 0.54297 1.2109 1.2109v15.727c0 0.66797-0.54297 1.2109-1.2109 1.2109zm-15.723-2.4219h14.516v-13.305h-14.516z"></path> <path d="m72.984 40.32c-2 0-3.6289-1.625-3.6289-3.6289 0-2 1.625-3.6289 3.6289-3.6289 2 0 3.6289 1.625 3.6289 3.6289-0.003906 2.0039-1.6289 3.6289-3.6289 3.6289zm0-4.8359c-0.66797 0-1.2109 0.54297-1.2109 1.2109 0 0.66797 0.54297 1.2109 1.2109 1.2109s1.2109-0.54297 1.2109-1.2109c0-0.67187-0.54297-1.2109-1.2109-1.2109z"></path> <path d="m76.609 46.371h-7.2578c-0.66797 0-1.2109-0.54297-1.2109-1.2109v-2.418c0-2.6641 2.1719-4.8398 4.8398-4.8398 2.6641 0 4.8398 2.1719 4.8398 4.8398v2.418c0 0.66797-0.53906 1.2109-1.2109 1.2109zm-6.043-2.4219h4.8398v-1.2109c0-1.332-1.0859-2.418-2.418-2.418s-2.418 1.0859-2.418 2.418z"></path> <path d="m41.684 43.949h-2.418c-0.66797 0-1.2109-0.54297-1.2109-1.2109s0.54297-1.2109 1.2109-1.2109 1.2109-0.54297 1.2109-1.2109h-1.3672c-0.66797 0-1.2109-0.54297-1.2109-1.2109v-9.6719c0-0.66797 0.54297-1.2109 1.2109-1.2109h16.934c0.66797 0 1.2109 0.54297 1.2109 1.2109v9.6758c0 0.66797-0.54297 1.2109-1.2109 1.2109h-8.8125c-0.94531 2.1797-3.1094 3.6289-5.5469 3.6289zm-1.3633-6.043h1.3633c0.66797 0 1.2109 0.54297 1.2109 1.2109v1.2109c0 0.36719-0.054687 0.72266-0.15625 1.0547 1.1914-0.35937 2.1406-1.3125 2.4609-2.5625 0.13672-0.53125 0.62109-0.91016 1.1719-0.91016h8.4688v-7.2656h-14.52z"></path> <path d="m51.211 35.484h-7.2617c-0.66797 0-1.2109-0.54297-1.2109-1.2109 0-0.66797 0.54297-1.2109 1.2109-1.2109h7.2578c0.66797 0 1.2109 0.54297 1.2109 1.2109 0 0.66797-0.53906 1.2109-1.207 1.2109z"></path></svg>
